<svg width="192" height="192" viewBox="0 0 192 192" fill="none" xmlns="http://www.w3.org/2000/svg">
<rect width="192" height="192" fill="#3B82F6"/>
<path d="M96 48C72.8 48 54 66.8 54 90C54 113.2 72.8 132 96 132C119.2 132 138 113.2 138 90C138 66.8 119.2 48 96 48ZM96 120C79.4 120 66 106.6 66 90C66 73.4 79.4 60 96 60C112.6 60 126 73.4 126 90C126 106.6 112.6 120 96 120Z" fill="white"/>
<path d="M60 144L132 144C135.3 144 138 146.7 138 150C138 153.3 135.3 156 132 156L60 156C56.7 156 54 153.3 54 150C54 146.7 56.7 144 60 144Z" fill="white"/>
</svg>